<svg xmlns="http://www.w3.org/2000/svg" viewBox="0 0 69.59 65.54"><g id="Layer_2" data-name="Layer 2"><g id="Layer_1-2" data-name="Layer 1"><path d="M19.83,50.86A29.86,29.86,0,0,0,39,44.34c2.67,4.61,7.27,2.82,10.22.78,2.73,4,7.13,2.19,10,.2,2.68,4,7,2.37,9.89.41V65.54h.5V0h-.5V12.74c-2.55,2.43-25,23.84-28.8,27.71-8.07,8.12-13.65,9.06-20.41,9.06S3.27,43.91,3.27,34.44s9.31-17.09,18.87-17.09,18.6,4.91,18.6,4.91l.18-.27C17,4.67,1,22.29.07,32.77S7.08,50.86,19.83,50.86Zm49.26-7.93c-2.31,1.93-4.14,3.24-5,3.42a5,5,0,0,1-4.72-1.11c.42-.3.8-.6,1.14-.88,2.47-2.09,4.44-4.19,8.63-8.27Zm0-9.52C62.69,39.59,56.05,45.63,54,46a5.09,5.09,0,0,1-4.63-1c.43-.3.83-.61,1.17-.9,2.76-2.33,4.88-4.66,10.15-9.74,2.87-2.77,6.07-5.83,8.39-8ZM45.09,39c4.42-4.21,17.78-17.13,24-23.15v7.51C62,30.48,47.32,45.14,44.1,45.79A4.9,4.9,0,0,1,39,44.31,76.43,76.43,0,0,0,45.09,39Z"/></g></g></svg>