<svg xmlns="http://www.w3.org/2000/svg" viewBox="0 0 69.59 65.54"><g id="Layer_2" data-name="Layer 2"><g id="Layer_1-2" data-name="Layer 1"><path d="M49.75,14.67A29.77,29.77,0,0,0,30.58,21.2c-2.68-4.61-7.27-2.82-10.23-.78-2.73-4-7.13-2.19-10-.21-2.69-4-7-2.36-9.89-.41V0H0V65.54H.5V52.8C3,50.37,25.46,29,29.3,25.09,37.36,17,42.94,16,49.7,16S66.31,21.62,66.31,31.1,57,48.19,47.44,48.19s-18.6-4.91-18.6-4.91l-.17.27c24,17.32,39.94-.3,40.84-10.78S62.51,14.67,49.75,14.67ZM.5,22.61c2.31-1.93,4.14-3.24,5.05-3.43a5,5,0,0,1,4.72,1.12,12.56,12.56,0,0,0-1.14.88C6.65,23.27,4.68,25.37.5,29.44Zm0,9.52c6.4-6.19,13-12.22,15.08-12.63a5,5,0,0,1,4.62,1c-.43.31-.82.62-1.17.91-2.75,2.33-4.88,4.66-10.14,9.74l-8.39,8Zm24-5.56C20.07,30.77,6.72,43.7.5,49.72V42.21c7.07-7.16,21.76-21.81,25-22.46a4.94,4.94,0,0,1,5.07,1.47A78.52,78.52,0,0,0,24.49,26.57Z"/></g></g></svg>