<svg xmlns="http://www.w3.org/2000/svg" viewBox="0 0 129.37 14"><g id="Layer_2" data-name="Layer 2"><g id="Layer_1-2" data-name="Layer 1"><path d="M129.3,6.83l-2.38-2.38a.24.24,0,0,0-.35,0l-1,1L123.09,3a.26.26,0,0,0-.35,0L119,6.76H71.5L64.82.07a.26.26,0,0,0-.35,0L57.79,6.76H10.39L6.63,3a.26.26,0,0,0-.35,0L3.82,5.46l-1-1a.24.24,0,0,0-.35,0L.07,6.83a.24.24,0,0,0,0,.34L2.45,9.55a.24.24,0,0,0,.18.07.23.23,0,0,0,.17-.07l1-1L6.28,11a.29.29,0,0,0,.18.07A.28.28,0,0,0,6.63,11l3.76-3.77h47.4l6.68,6.69a.23.23,0,0,0,.17.07.24.24,0,0,0,.18-.07L71.5,7.24H119L122.74,11a.28.28,0,0,0,.17.07.29.29,0,0,0,.18-.07l2.46-2.47,1,1a.23.23,0,0,0,.17.07.24.24,0,0,0,.18-.07l2.38-2.38a.24.24,0,0,0,0-.34ZM2.63,9l-2-2,2-2,.84.84-1,1a.25.25,0,0,0,0,.34l1,1ZM3.82,6.16,4.66,7l-.84.84L3,7Zm2.64,4.33-2.3-2.3,1-1a.24.24,0,0,0,0-.34l-1-1,2.3-2.3L9.94,7Zm58.18,2.92L58.23,7,64.64.59,71.05,7Zm58.27-2.92L119.43,7l3.48-3.49,2.3,2.3-1,1a.24.24,0,0,0,0,.34l1,1Zm2.64-4.33.85.84-.85.84L124.71,7ZM126.74,9l-.84-.84,1-1a.25.25,0,0,0,0-.34l-1-1,.84-.84,2,2Z"/></g></g></svg>