<svg xmlns="http://www.w3.org/2000/svg" viewBox="0 0 91.92 91.92"><defs><style>.cls-1{fill:#fff9ee;}.cls-2{fill:#0f0f0f;}</style></defs><g id="Layer_2" data-name="Layer 2"><g id="Layer_1-2" data-name="Layer 1"><polygon class="cls-1" points="1.59 45.96 45.96 1.3 90.68 45.96 46.14 90.56 1.59 45.96"/><path class="cls-2" d="M91.92,46l-28-28a16.25,16.25,0,0,0,.32-3.24V10.94h-.52a7.05,7.05,0,0,1-1.94,4.88L46,0,0,46,28,74a16.1,16.1,0,0,0-.32,3.24V81h.53a7.1,7.1,0,0,1,1.93-4.89L46,91.92ZM89.1,46,46,89.1,31.55,74.69c.2-.18.39-.36.61-.54h0c2.31-2,8.14-5.94,8.24-6,1.59-1.07,3.47-2.82,4.07-4.39.24,5.4,5.16,8.74,9.94,8.74,6.58,0,9.83-4.79,9.83-11.12V49.87h0V33h-.53v.65A3.34,3.34,0,0,1,60.44,37H34.77a5.15,5.15,0,0,1-5.16-5.39v-.06c.16-3.7,2.86-6.19,7.69-6.35a10.41,10.41,0,0,1,2.89.28c4.65,1.25,5.62,4.76,5.67,7.51,0,1.21,0,2.21,0,2.28h.49c.1-1.68,1.61-3.07,3.52-4.28.94-.47,8.11-4.93,9.44-5.84a11.22,11.22,0,0,0,4-5ZM62.35,46a3.75,3.75,0,0,1-3.76,3.75H33.33a3.76,3.76,0,0,1,0-7.51H58.59A3.75,3.75,0,0,1,62.35,46ZM2.83,46,46,2.83,60.37,17.24l-.61.54h0c-2.31,2-8.14,5.94-8.25,6a11.43,11.43,0,0,0-4.06,4.39c-.25-5.39-5.16-8.74-10-8.74-6.58,0-9.83,4.79-9.83,11.12V42.06h0V59h.52v-.66a3.34,3.34,0,0,1,3.28-3.35H57.19a5.13,5.13,0,0,1,5.13,5.39v.07c-.15,3.7-2.85,6.18-7.69,6.34a10.73,10.73,0,0,1-2.88-.27c-4.65-1.26-5.62-4.76-5.68-7.51,0-1.22,0-2.21,0-2.28h-.49C45.47,58.36,44,59.75,42,61c-.94.48-8.11,4.93-9.43,5.84a11.2,11.2,0,0,0-4,5Z"/></g></g></svg>