<svg xmlns="http://www.w3.org/2000/svg" viewBox="0 0 162.34 60.04"><g id="Layer_2" data-name="Layer 2"><g id="Layer_1-2" data-name="Layer 1"><path d="M54,60C42.43,60,31.39,47.79,24.35,31.15a2.63,2.63,0,0,0-2.51-1.9l-2.13,8.9a5.49,5.49,0,0,0-.28,1.58c0,1.34.74,2,3.66,2.31.19.05.24.38.24.61,0,.41-.24,1.06-.52,1.06-3.06,0-5.37-.23-7.83-.23s-5.06.23-7.84.23c-.14,0-.23-.23-.23-.6s.23-1,.56-1.07c4.59-.51,4.68-1.53,5.24-3.89l5.14-21.61c.61-2.32-.14-3-1.25-3C11.27,13.57,2,18,2,24.19c0,3,1.48,4.31,3.29,4.31S7,25.63,9.14,25.63a2.5,2.5,0,0,1,2.64,2.78c0,1.76-1.81,3.71-4.78,3.71-4.45,0-7-3.38-7-7.65,0-6.91,9-13.73,25.78-13.73,9.32,0,13.87,2.93,13.87,8.3,0,4.73-5.24,8.49-9.74,9.37C37.89,46.4,48.69,58,54.63,58c4.08,0,5.84-1.53,5.84-4.08,0-2-3.25-1.81-3.25-4.26a3,3,0,0,1,3.16-3.16c2.36,0,3.75,2.23,3.75,5.43C64.13,56.1,60.38,60,54,60ZM27.87,12.78a2.32,2.32,0,0,0-2.64,2l-3,12.57h2.13c5.2,0,8.35-4.45,8.35-9C32.74,14,30.33,12.78,27.87,12.78Z"/><path d="M66.17,22.94c0,.9,0,2.9,0,3.8,0,.16-.52.32-.84.32s-.85-.16-.85-.32c-.26-3.54-2-5.81-5.65-5.81H57.67c-1.21,0-2.22.48-2.74,2.75l-1.43,6h1.58c2.22,0,4.07-.37,5.18-3.54.05-.16.47-.32.79-.32s.79.16.74.32c-.47,2-.74,2.69-1.16,4.59s-.63,3.17-1.11,5.18c-.05.26-.48.32-.74.32-.47,0-.79-.16-.79-.32.42-3.38-.79-4.33-3.38-4.33H53L51.49,38a9.9,9.9,0,0,0-.26,2c0,1,.47,1.53,1.74,1.53h2.69c4,0,6.76-3,7.82-6.6.05-.11.37-.11.58-.11.48,0,1.16.42,1.06.69-.69,2.32-1.43,5.6-2,8.24-2.69-.11-6.23-.27-9.24-.27s-11.3.16-13.57.27c-.11,0-.21-.32-.21-.69s.21-1,.47-1.06c3.38-.47,3.59-1.58,4.17-4L48,24.42a7.37,7.37,0,0,0,.26-1.64c0-1.27-.69-2-3.06-2.32-.11,0-.16-.43-.16-.58,0-.59.21-1.17.42-1.17,2,.11,9.82.27,12.36.27s6.34-.16,8.66-.27A41.7,41.7,0,0,0,66.17,22.94Z"/><path d="M92.21,26.42c0,.22-.48.37-.85.37s-.84-.1-.84-.37c0-4-1.75-6.39-4.86-6.39-5.92,0-10.77,6.39-10.77,15.79,0,4.44,2.21,6.71,6.07,6.71s6.44-3.06,8.34-7.76c.06-.27.32-.37.69-.37s1,.37.9.53c-.53,2.11-1.43,5.75-1.9,8.18a36.17,36.17,0,0,1-9.19,1.32c-7.13,0-11.89-4.06-11.89-10.08,0-8.93,8.88-16.48,20-16.48a25.82,25.82,0,0,1,5.17.47C92.74,21,92.42,23.89,92.21,26.42Z"/><path d="M111.27,20.46c-3.38.47-3.59,1.58-4.17,4L103.82,38a14.14,14.14,0,0,0-.26,1.64c0,1.32.74,2,3.06,2.32.11,0,.16.43.16.58,0,.43-.21,1.17-.42,1.17-2.48,0-4.59-.27-7.08-.27s-4.43.27-6.65.27a1.12,1.12,0,0,1-.16-.69c0-.37.21-1,.42-1.06,3.44-.47,3.65-1.58,4.17-4l3.28-13.62a7.37,7.37,0,0,0,.26-1.64c0-1.27-.68-2-3-2.32-.16,0-.21-.43-.21-.58,0-.48.21-1.17.48-1.17,2.43,0,4.75.27,7.23.27s4.23-.27,6.44-.27c.11,0,.22.32.22.69S111.53,20.4,111.27,20.46Z"/><path d="M126.53,34a25.51,25.51,0,0,1-4.06-.32L121.3,38a12.66,12.66,0,0,0-.21,1.64c0,1.32.69,2,3,2.32.16,0,.21.43.21.58,0,.43-.21,1.17-.42,1.17-2.48,0-4.6-.27-7.08-.27s-4.43.27-6.65.27a1.12,1.12,0,0,1-.16-.69c0-.37.21-1,.42-1.06,3.38-.47,3.65-1.58,4.17-4l3.28-13.62a7.37,7.37,0,0,0,.26-1.64c0-1.27-.68-2-3-2.32-.16,0-.21-.43-.21-.58,0-.48.21-1.17.48-1.17,2.43,0,4,.27,6.33.27,2.06,0,4.6-.27,6.92-.27,5.81,0,9.08,2.43,9.08,6.87C137.67,30.49,132.29,34,126.53,34Zm1.27-13.26c-1.9,0-2.48.58-3,2.8l-1.64,6.92c-.26,1.21.21,1.58,2,1.58,3.27,0,5.86-3,5.86-7.23C131,22,129.86,20.72,127.8,20.72Z"/><path d="M162,22.94c-.05.9-.05,2.9,0,3.8,0,.16-.53.32-.85.32s-.84-.16-.84-.32c-.27-3.54-2-5.81-5.65-5.81h-1.16c-1.22,0-2.22.48-2.75,2.75l-1.43,6h1.59c2.22,0,4.07-.37,5.17-3.54.06-.16.48-.32.8-.32s.79.16.74.32c-.48,2-.74,2.69-1.17,4.59s-.63,3.17-1.11,5.18c-.05.26-.47.32-.74.32-.47,0-.79-.16-.79-.32.43-3.38-.79-4.33-3.38-4.33h-1.58L147.34,38a10,10,0,0,0-.27,2c0,1,.48,1.53,1.75,1.53h2.69c4,0,6.76-3,7.82-6.6,0-.11.36-.11.58-.11.47,0,1.16.42,1.05.69-.68,2.32-1.42,5.6-2,8.24-2.7-.11-6.24-.27-9.25-.27s-11.3.16-13.57.27c-.1,0-.21-.32-.21-.69s.21-1,.48-1.06c3.38-.47,3.59-1.58,4.17-4l3.27-13.62a7.47,7.47,0,0,0,.27-1.64c0-1.27-.69-2-3.07-2.32-.1,0-.16-.43-.16-.58,0-.59.22-1.17.43-1.17,2,.11,9.82.27,12.35.27s6.34-.16,8.67-.27A41.7,41.7,0,0,0,162,22.94Z"/><path d="M58.29,4.66c0,.11-.25.16-.43.16s-.39-.05-.39-.16c0-2-1-3.17-2.37-3.17H55a.92.92,0,0,0-1.08.85l-1.78,7.5a4,4,0,0,0-.13.77c0,.65.34,1,1.63,1.16,0,0,.07.21.07.28s-.07.57-.2.57c-1.21,0-2.4-.13-3.61-.13s-2.21.13-3.29.13c0,0-.08-.15-.08-.33s.1-.49.2-.52c1.81-.26,1.83-.75,2.12-1.93l1.77-7.5c.16-.64-.1-.85-.74-.85h-.47c-1.29,0-2.83,1.65-3.45,3.12,0,.13-.23.21-.44.21s-.41-.11-.36-.21A38.4,38.4,0,0,0,46.42.23a32.12,32.12,0,0,0,6.21.31A32,32,0,0,0,58.84.23,43.9,43.9,0,0,0,58.29,4.66Z"/><path d="M75,1.26c-1.67.23-1.78.78-2.06,1.93L71.33,9.84a3.45,3.45,0,0,0-.13.8c0,.64.31.95,1.47,1.13,0,0,.08.21.08.28s-.08.57-.21.57c-1.21,0-2.27-.13-3.48-.13s-1.9.13-3,.13c0,0-.1-.15-.1-.33s.1-.49.21-.52c1.49-.21,1.57-.8,1.83-1.93l.72-3H64l-.69,3a3.83,3.83,0,0,0-.13.85c0,.64.1.9,1.23,1.08.08,0,.11.21.11.28s-.11.57-.21.57c-1.21,0-2-.13-3.24-.13s-2.17.13-3.25.13c-.05,0-.08-.15-.08-.33s.11-.49.21-.52c1.67-.23,1.78-.77,2-1.93l1.6-6.65a3.46,3.46,0,0,0,.13-.79c0-.62-.33-1-1.47-1.14-.08,0-.1-.2-.1-.28s.1-.57.23-.57c1.19,0,2.32.13,3.53.13S65.71.41,66.8.41c0,0,.1.16.1.34s-.1.49-.23.51c-1.47.21-1.55.8-1.83,1.93l-.65,2.73H69l.64-2.73a3.6,3.6,0,0,0,.13-.82c0-.62-.13-.93-1.29-1.11,0,0-.07-.2-.07-.28s.07-.57.2-.57c1.19,0,2.06.13,3.27.13S74,.41,75.09.41c0,0,.08.16.08.34S75.06,1.24,75,1.26Z"/><path d="M87.09,2.47c0,.44,0,1.42,0,1.86,0,.07-.25.15-.41.15s-.41-.08-.41-.15c-.13-1.73-1-2.84-2.76-2.84H83c-.6,0-1.08.24-1.34,1.34l-.7,2.94h.77A2.25,2.25,0,0,0,84.21,4c0-.07.23-.15.39-.15S85,4,85,4c-.24,1-.36,1.32-.57,2.24s-.31,1.55-.54,2.53c0,.13-.23.15-.36.15s-.39-.07-.39-.15c.21-1.65-.39-2.11-1.65-2.11h-.77l-.75,3.14a5.59,5.59,0,0,0-.13.95c0,.49.24.75.85.75H82a4.05,4.05,0,0,0,3.81-3.22c0-.05.18-.05.28-.05s.57.2.52.33c-.34,1.14-.7,2.73-1,4-1.31,0-3-.13-4.51-.13s-5.51.08-6.62.13c0,0-.1-.15-.1-.33s.1-.49.23-.52c1.65-.23,1.75-.77,2-1.93l1.59-6.65a3.46,3.46,0,0,0,.13-.79c0-.62-.33-1-1.49-1.14-.05,0-.08-.2-.08-.28,0-.28.1-.57.21-.57,1,.05,4.79.13,6,.13S86.11.46,87.25.41A19.74,19.74,0,0,0,87.09,2.47Z"/><path d="M106.23,13a19.34,19.34,0,0,0-4.3-.36L99.72,7.88a1,1,0,0,0-1.06-.62L98,9.84a3.45,3.45,0,0,0-.13.8c0,.64.34.95,1.47,1.13.05,0,.08.21.08.28s-.08.57-.21.57c-1.18,0-2.24-.13-3.45-.13s-2.14.13-3.22.13c0,0-.1-.15-.1-.33s.1-.49.2-.52c1.68-.23,1.78-.77,2-1.93l1.6-6.65a4.13,4.13,0,0,0,.13-.79c0-.62-.34-1-1.47-1.14-.08,0-.11-.2-.11-.28s.11-.57.24-.57c1.18,0,1.82.13,3,.13,1,0,2.27-.13,3.38-.13,2.81,0,4.53.88,4.53,2.94,0,1.7-2,3-3.63,3.35L104,9.92a3.74,3.74,0,0,0,2.57,2.21c.1,0,.13.1.13.23C106.67,12.72,106.39,13,106.23,13ZM101.11,1.39c-.88,0-1.14.28-1.34,1.16l-1,3.89h.85c2,0,2.92-1.83,2.92-3.37C102.58,1.91,102.14,1.39,101.11,1.39Z"/><path d="M115.94,1.26c-1.64.23-1.75.78-2,1.93l-1.6,6.65a6.52,6.52,0,0,0-.13.8c0,.64.36.95,1.5,1.13,0,0,.08.21.08.28s-.11.57-.21.57c-1.21,0-2.24-.13-3.45-.13s-2.17.13-3.25.13a.58.58,0,0,1-.07-.33c0-.18.1-.49.2-.52,1.68-.23,1.78-.77,2-1.93l1.59-6.65a3.46,3.46,0,0,0,.13-.79c0-.62-.33-1-1.47-1.14-.07,0-.1-.2-.1-.28s.1-.57.23-.57c1.19,0,2.32.13,3.53.13S115,.41,116.07.41c.05,0,.11.16.11.34S116.07,1.24,115.94,1.26Z"/><path d="M129.93,7.78c-1.31.18-1.67.39-2,1.9l-.18.78a3.53,3.53,0,0,0-.11,1.49,12.92,12.92,0,0,1-5,1c-3.77,0-6.11-2-6.11-4.92,0-4.31,4.15-8,9.81-8a18.55,18.55,0,0,1,2.89.26c-.18,1.18-.39,3.09-.49,4.27,0,.13-.28.18-.44.18s-.41,0-.41-.18c.08-1.93-1-3.45-2.7-3.45-2.76,0-5.29,3.17-5.29,7.68,0,2.16,1.14,3.27,2.94,3.27,1.21,0,1.78-.44,2-1.29l.31-1.29a2,2,0,0,0,.08-.54c0-.69-.59-1-1.88-1.13-.08,0-.1-.21-.1-.31s.1-.54.23-.54c1.18,0,1.88.13,3.3.13s2.19-.13,3.37-.13c.05,0,.1.13.1.31S130.06,7.75,129.93,7.78Z"/><path d="M146.91,1.26c-1.68.23-1.78.78-2.06,1.93l-1.57,6.65a3.45,3.45,0,0,0-.13.8c0,.64.31.95,1.46,1.13.06,0,.08.21.08.28s-.08.57-.2.57c-1.21,0-2.27-.13-3.48-.13s-1.91.13-3,.13c-.05,0-.1-.15-.1-.33s.1-.49.2-.52c1.5-.21,1.58-.8,1.83-1.93l.72-3h-4.76l-.7,3a4.53,4.53,0,0,0-.13.85c0,.64.11.9,1.24,1.08.08,0,.1.21.1.28s-.1.57-.2.57c-1.21,0-2-.13-3.25-.13s-2.16.13-3.24.13c0,0-.08-.15-.08-.33s.1-.49.21-.52c1.67-.23,1.77-.77,2-1.93l1.6-6.65a4.13,4.13,0,0,0,.13-.79c0-.62-.34-1-1.47-1.14-.08,0-.1-.2-.1-.28s.1-.57.23-.57c1.18,0,2.32.13,3.53.13s1.85-.13,2.93-.13c0,0,.11.16.11.34s-.11.49-.24.51c-1.46.21-1.54.8-1.83,1.93l-.64,2.73h4.77l.64-2.73a3.6,3.6,0,0,0,.13-.82c0-.62-.13-.93-1.29-1.11,0,0-.08-.2-.08-.28s.08-.57.21-.57c1.18,0,2.06.13,3.27.13S145.93.41,147,.41a.63.63,0,0,1,.07.34C147.11.93,147,1.24,146.91,1.26Z"/><path d="M160.53,4.66c0,.11-.25.16-.43.16s-.39-.05-.39-.16c-.05-2-1-3.17-2.37-3.17h-.13a.92.92,0,0,0-1.08.85l-1.78,7.5a3.32,3.32,0,0,0-.13.77c0,.65.34,1,1.63,1.16.05,0,.07.21.07.28s-.07.57-.2.57c-1.21,0-2.4-.13-3.61-.13s-2.21.13-3.3.13a.58.58,0,0,1-.07-.33c0-.18.1-.49.2-.52,1.81-.26,1.83-.75,2.12-1.93l1.77-7.5c.16-.64-.1-.85-.74-.85h-.47c-1.29,0-2.83,1.65-3.45,3.12,0,.13-.23.21-.44.21s-.41-.11-.36-.21A38.4,38.4,0,0,0,148.66.23a32.12,32.12,0,0,0,6.21.31,31.73,31.73,0,0,0,6.2-.31C160.84,1.52,160.61,3.43,160.53,4.66Z"/></g></g></svg>